<svg width="1024" height="1024" viewBox="0 0 1024 1024" fill="none" xmlns="http://www.w3.org/2000/svg" role="img" aria-labelledby="title desc">
  <title id="title">Lumora Women monogram option A</title>
  <desc id="desc">An editorial LW monogram with a soft botanical flourish.</desc>
  <rect width="1024" height="1024" fill="#F8F6F0"/>
  <path d="M220 721V303H303V673H485V721H220Z" fill="#162814"/>
  <path d="M421 303H493L559 602L642 366H696L779 602L845 303H912L808 721H740L667 502L590 721H523L421 303Z" fill="#162814"/>
  <path d="M498 626C508 542 511 467 509 396" stroke="#C8980A" stroke-width="13" stroke-linecap="round"/>
  <path d="M510 399C467 358 469 308 511 260C553 308 555 358 510 399Z" fill="#C8980A"/>
  <path d="M501 427C454 421 424 391 413 350C461 351 491 375 501 427Z" fill="#4A7A40"/>
  <path d="M519 427C566 421 596 391 607 350C559 351 529 375 519 427Z" fill="#4A7A40"/>
  <path d="M439 900C492 870 532 821 555 753" stroke="#C8980A" stroke-width="6" stroke-linecap="round"/>
</svg>
